<?xml version="1.0" encoding="UTF-8"?><svg id="Layer_2" xmlns="http://www.w3.org/2000/svg" viewBox="0 0 905.61 200"><defs><style>.cls-1{fill:#2f393d;}.cls-1,.cls-2,.cls-3{stroke-width:0px;}.cls-2{fill:#17bba5;}.cls-3{fill:#d7ff36;}</style></defs><g id="Layer_1-2"><path class="cls-3" d="M286.96,121.21l16.93-80.23c3.68-16.56,18.03-27.79,36.07-27.79s27.79,11.23,24.29,27.79l-3.5,16.56h-23.19l3.31-16.38c.92-4.23-1.29-6.81-5.52-6.81s-7.36,2.58-8.28,6.81l-16.38,77.29c-.92,4.23,1.47,6.81,5.7,6.81s7.73-2.58,8.65-6.81l6.44-30h-7.36l3.86-19.14h30.18l-15.83,74.9h-15.83l1.29-6.81,1.1-2.21h-2.21l-.92,2.21c-4.05,5.89-11.59,9.02-19.87,9.02-14.72,0-22.27-10.12-18.95-25.21Z"/><path class="cls-3" d="M388.17,15.4h35.7l-11.96,128.82h-24.48l4.23-31.1h-14.17l-9.02,31.1h-23.37L388.17,15.4ZM394.25,93.98l5.52-44.9,2.39-10.67h-3.31l-2.21,10.67-12.33,39.75-11.59,4.42-.18.74h21.72Z"/><path class="cls-3" d="M443.2,15.4h41.41l-11.59,85.39-4.23,20.43h3.13l4.42-20.43,24.84-85.39h40.67l-27.42,128.82h-23.19l19.69-92.56,2.21-10.49h-3.13l-2.39,10.49-27.6,92.56h-29.81l11.59-92.56,2.02-10.49h-3.13l-2.02,10.49-19.69,92.56h-23.19l27.42-128.82Z"/><path class="cls-3" d="M549.94,15.4h43.8l-4.42,21.16h-20.79l-5.7,27.05-11.23,4.23-.18.74h28.89l-4.42,20.61h-18.59l-6.07,28.89-11.23,4.23-.18.74h31.1l-4.6,21.16h-43.8l27.42-128.82Z"/><path class="cls-3" d="M607.17,36.56h-13.25l4.6-21.16h49.69l-4.42,21.16h-13.43l-22.82,107.66h-23.19l22.82-107.66Z"/><path class="cls-3" d="M651.52,15.4h23.19l-27.42,128.82h-23.19l27.42-128.82Z"/><path class="cls-3" d="M682.99,15.4h41.41l-11.59,85.39-4.23,20.43h3.13l4.42-20.43,24.84-85.39h40.67l-27.42,128.82h-23.19l19.69-92.56,2.21-10.49h-3.13l-2.39,10.49-27.6,92.56h-29.81l11.59-92.56,2.03-10.49h-3.13l-2.02,10.49-19.69,92.56h-23.19l27.42-128.82Z"/><path class="cls-3" d="M789.73,15.4h43.8l-4.42,21.16h-20.79l-5.7,27.05-11.23,4.23-.18.74h28.89l-4.42,20.61h-18.59l-6.07,28.89-11.23,4.23-.18.74h31.1l-4.6,21.16h-43.8l27.42-128.82Z"/><path class="cls-1" d="M235.67,168.13l-.81,4.13h-5.87l-2.78,14.19h-4.73l2.78-14.19h-5.9l.81-4.13h16.5Z"/><path class="cls-1" d="M237.45,172.4c.91-1.45,2.13-2.58,3.68-3.4,1.54-.82,3.29-1.23,5.25-1.23,1.82,0,3.39.36,4.7,1.09,1.32.73,2.32,1.73,3.01,3,.69,1.27,1.04,2.72,1.04,4.35,0,.23-.02.58-.05,1.06-.16,1.82-.69,3.45-1.6,4.9-.91,1.45-2.13,2.58-3.65,3.4-1.52.82-3.26,1.23-5.2,1.23-1.82,0-3.39-.36-4.73-1.09s-2.35-1.74-3.05-3.03c-.7-1.29-1.05-2.76-1.05-4.4,0-.23.02-.56.05-1.01.16-1.8.69-3.42,1.6-4.87ZM240.68,178.29c0,1.37.35,2.42,1.04,3.14.69.73,1.74,1.09,3.14,1.09,1.56,0,2.79-.45,3.7-1.36.91-.91,1.46-2.2,1.65-3.88.05-.4.08-.76.08-1.09,0-1.33-.35-2.36-1.05-3.07-.7-.71-1.74-1.07-3.1-1.07-1.56,0-2.8.45-3.73,1.36-.93.91-1.48,2.2-1.68,3.86-.03.24-.05.58-.05,1.01Z"/><path class="cls-1" d="M259.7,168.13h4.7l-2.78,14.16h2.49c1.3,0,2.33-.09,3.08-.26.75-.17,1.41-.62,1.97-1.34.56-.72.97-1.84,1.21-3.36.1-.66.16-1.23.16-1.71,0-1.04-.2-1.8-.6-2.27-.4-.48-.92-.77-1.57-.9-.65-.12-1.55-.18-2.69-.18h-2.08l.81-4.13h1.64c2.77,0,5,.51,6.68,1.52,1.68,1.01,2.52,2.93,2.52,5.76,0,.52-.04,1.15-.13,1.9-.31,2.46-1.03,4.37-2.14,5.72-1.12,1.35-2.45,2.26-3.99,2.73-1.54.47-3.28.7-5.22.7h-7.64l3.59-18.32Z"/><path class="cls-1" d="M284.18,168.13h8.65l2.26,18.32h-4.91l-.65-5.53h-6.94l-2.81,5.53h-5.07l9.46-18.32ZM289.06,176.78l-.83-6.94-3.53,6.94h4.36Z"/><path class="cls-1" d="M318.13,168.13l-7.35,11.25h-1.71l-1.38,7.07h-4.73l1.38-7.07h-1.69l-2.91-11.25h4.86l2.18,10.03,6.13-10.03h5.22Z"/><path class="cls-1" d="M320.89,166.93l3.56-.83.94,9.46-3.61.78-.88-9.41Z"/><path class="cls-1" d="M342.82,185.15c-1.42,1.11-3.62,1.66-6.6,1.66s-5.14-.57-6.53-1.7-2.09-2.78-2.09-4.95c0-.38,0-.67.03-.86h4.86c-.02.14-.03.33-.03.57,0,.75.13,1.33.39,1.75s.69.74,1.29.93c.6.2,1.42.3,2.48.3,1.2,0,2.07-.13,2.62-.4.55-.27.83-.7.83-1.29,0-.31-.12-.57-.36-.78-.24-.21-.61-.39-1.09-.55l-5.01-1.59c-1.4-.43-2.41-1.06-3.03-1.87-.62-.81-.88-1.87-.79-3.17.14-1.8.88-3.16,2.23-4.08s3.22-1.38,5.61-1.38c2.79,0,4.87.6,6.24,1.79,1.37,1.2,1.98,2.82,1.84,4.88h-4.88c.07-.99-.17-1.7-.7-2.14-.54-.44-1.43-.66-2.68-.66-1.85,0-2.78.52-2.78,1.56,0,.24.09.46.29.66.19.2.55.38,1.07.53l4.83,1.46c1.4.43,2.44,1.03,3.1,1.78.67.75,1,1.72,1,2.9,0,1.97-.71,3.52-2.13,4.63Z"/><path class="cls-1" d="M358.07,168.13h8.78l1.97,16.81.49-2.55,2.78-14.26h4.73l-3.59,18.32h-8.81l-1.97-16.81-.49,2.55-2.78,14.26h-4.7l3.59-18.32Z"/><path class="cls-1" d="M380.49,168.13h7.35c1.75,0,3.15.12,4.21.35,1.06.23,1.84.64,2.36,1.21.52.57.78,1.35.78,2.34,0,1.63-.4,2.79-1.2,3.49-.8.7-1.78,1.15-2.96,1.34,1.14.19,2.06.6,2.74,1.22.68.62,1.03,1.52,1.03,2.7,0,.16-.02.43-.05.81-.17,1.35-.67,2.38-1.49,3.09s-1.87,1.18-3.14,1.42c-1.27.23-2.84.35-4.69.35h-8.52l3.59-18.32ZM386.13,182.42c1.07,0,1.84-.02,2.29-.06.45-.04.83-.2,1.13-.46s.51-.69.61-1.3c.02-.1.03-.26.03-.47,0-.47-.13-.8-.4-.99-.27-.19-.61-.3-1.03-.34-.42-.03-1.11-.05-2.08-.05h-3.53l-.73,3.66h3.72ZM387.61,175.06h.97c.56,0,.99-.13,1.29-.39.29-.26.48-.65.55-1.17.02-.09.03-.2.03-.34,0-.4-.1-.68-.29-.86-.19-.17-.44-.28-.75-.32-.31-.04-.77-.06-1.38-.06h-3.56l-.62,3.14h3.77Z"/><path class="cls-1" d="M404.55,168.13h8.65l2.26,18.32h-4.91l-.65-5.53h-6.94l-2.81,5.53h-5.07l9.46-18.32ZM409.43,176.78l-.83-6.94-3.53,6.94h4.36Z"/><path class="cls-1" d="M429.96,185.78c-1.18-.67-2.08-1.62-2.72-2.86-.63-1.24-.95-2.69-.95-4.35,0-.26.02-.65.05-1.17.17-1.97.72-3.69,1.65-5.14.93-1.46,2.14-2.57,3.64-3.34,1.5-.77,3.17-1.16,5.03-1.16,1.59,0,3.03.29,4.31.87,1.28.58,2.31,1.39,3.08,2.44.77,1.05,1.2,2.25,1.29,3.6h-4.88c-.05-.85-.41-1.53-1.07-2.05s-1.52-.78-2.6-.78c-1.54,0-2.8.49-3.78,1.48-.98.99-1.57,2.3-1.78,3.95-.05.42-.08.81-.08,1.2,0,2.79,1.5,4.18,4.49,4.18,1.33,0,2.44-.27,3.33-.8.88-.54,1.43-1.26,1.64-2.16h-4.55l.68-3.61h6.76c.66,0,1.16.15,1.51.45.35.3.52.75.52,1.34,0,.21-.03.43-.08.68l-1.56,7.9h-4.68l.29-1.25.26-1.43c-.52.97-1.26,1.71-2.22,2.23-.96.52-2.12.78-3.47.78-1.56,0-2.93-.33-4.1-1Z"/><path class="cls-1" d="M455.78,168.13h8.65l2.26,18.32h-4.91l-.65-5.53h-6.94l-2.81,5.53h-5.07l9.46-18.32ZM460.66,176.78l-.83-6.94-3.53,6.94h4.36Z"/><path class="cls-1" d="M472.54,168.13h8.86l-.57,16.73,5.92-16.73h8.94l-3.59,18.32h-4.7l2.23-11.33,1.01-5.25-6.21,16.58h-7.82l.26-16.55-1.01,5.22-2.21,11.33h-4.7l3.59-18.32Z"/><path class="cls-1" d="M499.38,168.13h14.55l-.81,4.13h-9.82l-.62,3.07h8.52l-.73,3.9h-8.52l-.62,3.09h9.82l-.81,4.13h-14.55l3.59-18.32Z"/><path class="cls-1" d="M537.08,185.15c-1.42,1.11-3.62,1.66-6.6,1.66s-5.14-.57-6.53-1.7-2.09-2.78-2.09-4.95c0-.38,0-.67.03-.86h4.86c-.02.14-.03.33-.03.57,0,.75.13,1.33.39,1.75s.69.74,1.29.93c.6.2,1.42.3,2.48.3,1.2,0,2.07-.13,2.62-.4.55-.27.83-.7.83-1.29,0-.31-.12-.57-.36-.78-.24-.21-.61-.39-1.09-.55l-5.01-1.59c-1.4-.43-2.41-1.06-3.03-1.87-.62-.81-.88-1.87-.79-3.17.14-1.8.88-3.16,2.23-4.08s3.22-1.38,5.61-1.38c2.79,0,4.87.6,6.24,1.79,1.37,1.2,1.98,2.82,1.84,4.88h-4.88c.07-.99-.17-1.7-.7-2.14-.54-.44-1.43-.66-2.68-.66-1.85,0-2.78.52-2.78,1.56,0,.24.09.46.29.66.19.2.55.38,1.07.53l4.83,1.46c1.4.43,2.44,1.03,3.1,1.78.67.75,1,1.72,1,2.9,0,1.97-.71,3.52-2.13,4.63Z"/><path class="cls-1" d="M546.08,185.72c-1.36-.73-2.39-1.74-3.1-3.03-.71-1.29-1.07-2.76-1.07-4.4,0-.23.02-.56.05-1.01.16-1.8.69-3.42,1.61-4.87.92-1.45,2.16-2.58,3.72-3.4,1.56-.82,3.33-1.23,5.3-1.23,1.7,0,3.19.3,4.47.91s2.28,1.47,3,2.58,1.09,2.43,1.13,3.94h-4.86c-.09-1.02-.5-1.8-1.23-2.34-.74-.54-1.68-.81-2.82-.81-1.46,0-2.67.43-3.65,1.29-.98.86-1.57,2.14-1.78,3.86-.03.45-.05.78-.05.99,0,1.46.39,2.54,1.16,3.26s1.82,1.08,3.16,1.08c1.18,0,2.19-.28,3.04-.83.85-.55,1.43-1.33,1.74-2.34h4.88c-.31,1.54-.92,2.87-1.83,3.99-.91,1.12-2.05,1.97-3.43,2.57-1.38.6-2.91.9-4.59.9-1.87,0-3.49-.36-4.85-1.09Z"/><path class="cls-1" d="M570.49,168.13l-1.43,7.35h8.03l1.43-7.35h4.76l-3.59,18.32h-4.76l1.33-6.81h-8.03l-1.32,6.81h-4.7l3.59-18.32h4.7Z"/><path class="cls-1" d="M586.93,168.13h14.55l-.81,4.13h-9.82l-.62,3.07h8.52l-.73,3.9h-8.52l-.62,3.09h9.82l-.81,4.13h-14.55l3.59-18.32Z"/><path class="cls-1" d="M604.65,168.13h4.7l-2.78,14.16h2.49c1.3,0,2.33-.09,3.08-.26.75-.17,1.41-.62,1.97-1.34.56-.72.97-1.84,1.21-3.36.1-.66.16-1.23.16-1.71,0-1.04-.2-1.8-.6-2.27-.4-.48-.92-.77-1.57-.9-.65-.12-1.55-.18-2.69-.18h-2.08l.81-4.13h1.64c2.77,0,5,.51,6.68,1.52,1.68,1.01,2.52,2.93,2.52,5.76,0,.52-.04,1.15-.13,1.9-.31,2.46-1.03,4.37-2.14,5.72-1.12,1.35-2.45,2.26-3.99,2.73-1.54.47-3.28.7-5.22.7h-7.64l3.59-18.32Z"/><path class="cls-1" d="M624.22,168.13h4.73l-1.77,9.09c-.24,1.18-.36,2.1-.36,2.75,0,.87.24,1.52.73,1.96.48.44,1.34.66,2.57.66,1.16,0,2.04-.19,2.64-.57.6-.38,1.02-.9,1.26-1.55.24-.65.49-1.63.75-2.95l1.82-9.4h4.73l-2.36,12.08c-.42,2.15-1.36,3.78-2.85,4.9s-3.49,1.68-6.01,1.68c-2.37,0-4.32-.5-5.85-1.51-1.52-1.01-2.29-2.59-2.29-4.76,0-.55.07-1.2.21-1.95l2.05-10.44Z"/><path class="cls-1" d="M641.86,186.02c-.35-.29-.52-.71-.52-1.29,0-.21.03-.42.08-.65l3.12-15.95h4.7l-2.75,14.16h8.81l-.8,4.16h-11.12c-.66,0-1.16-.14-1.51-.43Z"/><path class="cls-1" d="M660.59,168.13h14.55l-.81,4.13h-9.82l-.62,3.07h8.52l-.73,3.9h-8.52l-.62,3.09h9.82l-.81,4.13h-14.55l3.59-18.32Z"/><path class="cls-1" d="M690.26,175.61l1.06-5.48h3.35l-1.06,5.48h5.46l-.65,3.35h-5.46l-1.07,5.46h-3.35l1.07-5.46h-5.46l.65-3.35h5.46Z"/><path class="cls-1" d="M709.51,186.02c-.35-.29-.52-.71-.52-1.29,0-.21.03-.42.08-.65l3.12-15.95h4.7l-2.75,14.16h8.81l-.8,4.16h-11.12c-.66,0-1.16-.14-1.51-.43Z"/><path class="cls-1" d="M740.92,168.13l-.83,4.13h-4.16l-1.97,10.03h4.21l-.83,4.16h-13.07l.83-4.16h4.16l1.97-10.03h-4.18l.81-4.13h13.07Z"/><path class="cls-1" d="M742.82,168.13h4.91l1.95,16.6,8.44-16.6h5.07l-9.46,18.32h-8.65l-2.26-18.32Z"/><path class="cls-1" d="M765.48,168.13h14.55l-.81,4.13h-9.82l-.62,3.07h8.52l-.73,3.9h-8.52l-.62,3.09h9.82l-.81,4.13h-14.55l3.59-18.32Z"/><path class="cls-1" d="M803.17,185.15c-1.42,1.11-3.62,1.66-6.6,1.66s-5.14-.57-6.53-1.7c-1.39-1.13-2.09-2.78-2.09-4.95,0-.38,0-.67.03-.86h4.86c-.02.14-.03.33-.03.57,0,.75.13,1.33.39,1.75s.69.74,1.29.93c.6.2,1.43.3,2.48.3,1.2,0,2.07-.13,2.63-.4.55-.27.83-.7.83-1.29,0-.31-.12-.57-.36-.78-.24-.21-.61-.39-1.09-.55l-5.02-1.59c-1.4-.43-2.41-1.06-3.03-1.87-.61-.81-.88-1.87-.79-3.17.14-1.8.88-3.16,2.23-4.08,1.35-.92,3.22-1.38,5.61-1.38,2.79,0,4.87.6,6.24,1.79,1.37,1.2,1.98,2.82,1.84,4.88h-4.89c.07-.99-.16-1.7-.7-2.14-.54-.44-1.43-.66-2.68-.66-1.85,0-2.78.52-2.78,1.56,0,.24.1.46.29.66s.55.38,1.07.53l4.83,1.46c1.4.43,2.44,1.03,3.1,1.78.67.75,1,1.72,1,2.9,0,1.97-.71,3.52-2.13,4.63Z"/><path class="cls-1" d="M812.17,185.72c-1.36-.73-2.39-1.74-3.1-3.03-.71-1.29-1.07-2.76-1.07-4.4,0-.23.02-.56.05-1.01.16-1.8.69-3.42,1.61-4.87.92-1.45,2.16-2.58,3.72-3.4,1.56-.82,3.33-1.23,5.3-1.23,1.7,0,3.19.3,4.47.91s2.28,1.47,3,2.58c.72,1.12,1.09,2.43,1.13,3.94h-4.86c-.09-1.02-.5-1.8-1.23-2.34-.74-.54-1.68-.81-2.82-.81-1.45,0-2.67.43-3.65,1.29-.98.86-1.57,2.14-1.78,3.86-.03.45-.05.78-.05.99,0,1.46.39,2.54,1.16,3.26.77.72,1.82,1.08,3.16,1.08,1.18,0,2.19-.28,3.04-.83.85-.55,1.43-1.33,1.74-2.34h4.88c-.31,1.54-.92,2.87-1.83,3.99-.91,1.12-2.05,1.97-3.43,2.57s-2.91.9-4.59.9c-1.87,0-3.49-.36-4.85-1.09Z"/><path class="cls-1" d="M830.83,172.4c.91-1.45,2.13-2.58,3.68-3.4s3.29-1.23,5.25-1.23c1.82,0,3.39.36,4.7,1.09,1.32.73,2.32,1.73,3.01,3s1.04,2.72,1.04,4.35c0,.23-.02.58-.05,1.06-.16,1.82-.69,3.45-1.6,4.9s-2.13,2.58-3.65,3.4c-1.52.82-3.26,1.23-5.2,1.23-1.82,0-3.4-.36-4.73-1.09-1.33-.73-2.35-1.74-3.05-3.03-.7-1.29-1.05-2.76-1.05-4.4,0-.23.02-.56.05-1.01.16-1.8.69-3.42,1.6-4.87ZM834.06,178.29c0,1.37.35,2.42,1.04,3.14.69.73,1.74,1.09,3.14,1.09,1.56,0,2.79-.45,3.7-1.36.91-.91,1.46-2.2,1.65-3.88.05-.4.08-.76.08-1.09,0-1.33-.35-2.36-1.05-3.07-.7-.71-1.74-1.07-3.11-1.07-1.56,0-2.8.45-3.73,1.36-.93.91-1.49,2.2-1.68,3.86-.03.24-.05.58-.05,1.01Z"/><path class="cls-1" d="M853.08,168.13h7.48c2.36,0,4.26.32,5.7.95s2.17,1.79,2.17,3.47c0,1.47-.41,2.62-1.22,3.44-.81.82-1.82,1.36-3.01,1.62h.1c.99,0,1.71.23,2.16.68s.68,1.04.68,1.77c0,.26-.03.54-.08.83l-1.09,5.56h-4.7l1.22-6.21h-7.04l-1.22,6.21h-4.73l3.59-18.32ZM859.68,176.13c.83,0,1.48-.03,1.96-.1s.87-.24,1.2-.52c.32-.28.52-.71.61-1.3.02-.1.03-.24.03-.42,0-.48-.14-.84-.42-1.05-.28-.22-.63-.35-1.05-.4-.42-.05-1.02-.08-1.78-.08h-3.22l-.75,3.87h3.43Z"/><path class="cls-1" d="M872.72,168.13h14.55l-.81,4.13h-9.82l-.62,3.07h8.52l-.73,3.9h-8.52l-.62,3.09h9.82l-.81,4.13h-14.55l3.59-18.32Z"/><path class="cls-1" d="M902.71,185.15c-1.42,1.11-3.62,1.66-6.6,1.66s-5.14-.57-6.53-1.7c-1.39-1.13-2.09-2.78-2.09-4.95,0-.38,0-.67.03-.86h4.86c-.02.14-.03.33-.03.57,0,.75.13,1.33.39,1.75s.69.74,1.29.93c.6.2,1.43.3,2.48.3,1.2,0,2.07-.13,2.63-.4.55-.27.83-.7.83-1.29,0-.31-.12-.57-.36-.78-.24-.21-.61-.39-1.09-.55l-5.02-1.59c-1.4-.43-2.41-1.06-3.03-1.87-.61-.81-.88-1.87-.79-3.17.14-1.8.88-3.16,2.23-4.08,1.35-.92,3.22-1.38,5.61-1.38,2.79,0,4.87.6,6.24,1.79,1.37,1.2,1.98,2.82,1.84,4.88h-4.89c.07-.99-.16-1.7-.7-2.14-.54-.44-1.43-.66-2.68-.66-1.85,0-2.78.52-2.78,1.56,0,.24.1.46.29.66s.55.38,1.07.53l4.83,1.46c1.4.43,2.44,1.03,3.1,1.78.67.75,1,1.72,1,2.9,0,1.97-.71,3.52-2.13,4.63Z"/><rect class="cls-3" width="200" height="200" rx="40.5" ry="40.5"/><path class="cls-1" d="M79.08,81.6c-.08-1.93-.33-3.78-.73-5.56l-5.93,28.1c1.82-2.45,2.86-4.77,3.53-6.23,2.25-4.99,3.37-10.78,3.13-16.31ZM81.12,69.73c-.37-.38-.74-.75-1.13-1.1-.18.63-.34,1.27-.48,1.92l-.57,2.69h0c.13.4.25.8.36,1.21.89.29,1.82.65,2.74,1.11-.38-1.93-.68-3.88-.92-5.82ZM82.68,71.49c.24,1.63.52,3.26.86,4.88,1.14.69,2.25,1.54,3.29,2.6-.98-2.76-2.39-5.27-4.16-7.47ZM85.63,89.44c-.28-1.77-.71-3.12-1.25-4.82-.52-1.66-1.12-3.55-1.78-6.4-.08-.34-.15-.67-.23-1.01-.9-.51-1.81-.92-2.7-1.25.39,1.79.63,3.65.71,5.58.25,5.73-.91,11.74-3.25,16.91-.87,1.92-2.37,5.23-5.31,8.48l-1.1,5.2c6.12-2.05,11.05-6.26,14.12-11.56h0c1.07-3.89,1.33-7.62.77-11.13ZM87.75,82.21l-.03-.12c-.28-.41-.58-.81-.91-1.21-.89-1.06-1.86-1.94-2.87-2.66.62,2.64,1.19,4.43,1.68,6.01.53,1.69.99,3.14,1.29,5.01.32,2.01.39,4.09.2,6.22,1.32-4.15,1.61-8.68.63-13.24ZM71.75,124.47c-1.31.62-2.64,1.22-4,1.79l-2.25,10.67c2.29-.87,4.46-1.84,6.41-2.74,6.53-3.2,12.78-6.9,18.79-10.95l2.37-11.2c-7.34,4.94-14.57,9.18-21.32,12.43ZM133.38,86.48h.87l.25-1.2c-.37.4-.75.8-1.12,1.2Z"/><path class="cls-1" d="M131.77,97.82l-15.23,72.1h-15.23l1.24-6.55,1.06-2.13h-2.13l-.89,2.13c-3.9,5.67-11.16,8.68-19.13,8.68-14.17,0-21.43-9.74-18.25-24.27l2.29-10.84c2.29-.87,4.46-1.84,6.41-2.74,6.53-3.2,12.78-6.9,18.79-10.95l-4.63,21.87c-.89,4.07,1.42,6.56,5.49,6.56s7.44-2.48,8.33-6.56l6.2-28.87h-7.08l1.97-9.76,1.75-8.67h29.05Z"/><path class="cls-2" d="M73.03,74.43c-11.22-1.56-22.07,3.11-28,7.64-4.23,3.23-6.87,6.93-7.24,10.15-.11.94-.12,1.91-.09,2.82,1.22,4.08,3.37,7.66,6.17,10.56,5-3.31,9.76-7,14.2-11.02,8.91-8.07,15.99-14.48,14.96-20.14Z"/><path class="cls-2" d="M44.24,81.03c3.74-2.85,8.49-5.2,13.39-6.62,5.06-1.46,10.22-1.93,14.99-1.36-2.02-4.7-9.35-7.07-13.8-7.46-5.69-.51-11.43,1.53-16.25,5.54-4.37,5.28-6.61,12.25-5.78,19.45.9-3.19,3.49-6.53,7.45-9.55Z"/><path class="cls-2" d="M58.93,64.29c5.16.46,13.33,3.23,15.15,8.98,1.05.16,2.34.38,3.74.74-.96-3.16-2.45-6.02-4.42-8.45-.63-.77-1.3-1.51-2.03-2.2h0c-4.43-1.63-9.36-2.06-14.32-1-3.33.71-6.37,2.04-9.03,3.83,3.49-1.55,7.21-2.23,10.91-1.9Z"/><path class="cls-2" d="M75.95,97.91c-.66,1.46-1.71,3.78-3.53,6.23-1.55,2.1-3.66,4.29-6.58,6.14-2.29,1.45-4.59,2.39-6.76,2.99,0,0,0,0,0,0-5.37-.71-10.36-3.1-14.25-6.74,4.97-3.31,9.71-6.99,14.12-10.99,9.35-8.46,16.23-14.69,15.43-20.9,1.11.18,2.43.43,3.84.84.04.19.09.37.13.56h0c.4,1.78.65,3.63.73,5.56.24,5.53-.88,11.32-3.13,16.31Z"/><path class="cls-2" d="M82.04,75.55c-.92-.45-1.84-.81-2.74-1.11-.11-.41-.23-.81-.36-1.21h0c-1.01-3.17-2.54-6.04-4.53-8.5l-.05-.06c2.04,1.06,3.94,2.39,5.63,3.95.39.35.76.72,1.13,1.1.23,1.95.54,3.89.92,5.82Z"/><path class="cls-2" d="M84.86,100.57h0c-3.07,5.31-8,9.51-14.12,11.56-.92.31-1.87.57-2.84.78-1.82.39-3.63.58-5.41.58,1.34-.55,2.7-1.24,4.06-2.1,2.15-1.36,3.88-2.9,5.28-4.45,2.94-3.25,4.44-6.57,5.31-8.48,2.34-5.17,3.49-11.17,3.25-16.91-.08-1.93-.32-3.79-.71-5.58.89.33,1.8.74,2.7,1.25.07.34.15.67.23,1.01.66,2.85,1.25,4.73,1.78,6.4.54,1.7.96,3.05,1.25,4.82.56,3.51.3,7.24-.77,11.13Z"/><path class="cls-2" d="M86.83,78.97c-1.04-1.05-2.16-1.91-3.29-2.6-.34-1.61-.63-3.24-.86-4.88,1.76,2.2,3.18,4.71,4.16,7.47Z"/><path class="cls-2" d="M87.12,95.45c.19-2.13.12-4.21-.2-6.22-.3-1.86-.76-3.32-1.29-5.01-.5-1.58-1.06-3.37-1.68-6.01,1.01.73,1.98,1.6,2.87,2.66.33.4.64.8.91,1.21l.03.12c.98,4.56.69,9.1-.63,13.24Z"/><path class="cls-1" d="M119.33,44.13c-.76-.11-1.53-.19-2.33-.24-.9-.06-1.82-.1-2.77-.1-16.65,0-30.05,9.95-34.24,24.83.39.35.76.72,1.13,1.1.23,1.95.54,3.89.92,5.82-.92-.45-1.84-.81-2.74-1.11-.11-.41-.23-.81-.36-1.21l-.59,2.81h0c.4,1.78.65,3.63.73,5.56.24,5.53-.88,11.32-3.13,16.31-.66,1.46-1.71,3.78-3.53,6.23l-.59,2.79c2.94-3.25,4.44-6.57,5.31-8.48,2.34-5.17,3.49-11.17,3.25-16.91-.08-1.93-.32-3.79-.71-5.58.89.33,1.8.74,2.7,1.25.07.34.15.67.23,1.01.66,2.85,1.25,4.73,1.78,6.4.54,1.7.96,3.05,1.25,4.82.56,3.51.3,7.24-.77,11.13h0c-3.07,5.31-8,9.51-14.12,11.56l-2.98,14.13c1.36-.57,2.69-1.17,4-1.79,6.75-3.24,13.98-7.49,21.32-12.43l8.76-41.33c.88-4.07,4.07-6.55,7.97-6.55s6.2,2.48,5.31,6.55l-3.19,15.77h21.45c.38-.4.75-.8,1.12-1.2l2.25-10.64.87-4.1c3.02-14.3-4.23-24.47-18.28-26.41ZM82.68,71.49c1.76,2.2,3.18,4.71,4.16,7.47-1.04-1.05-2.16-1.91-3.29-2.6-.34-1.61-.63-3.24-.86-4.88ZM87.12,95.45c.19-2.13.12-4.21-.2-6.22-.3-1.86-.76-3.32-1.29-5.01-.5-1.58-1.06-3.37-1.68-6.01,1.01.73,1.98,1.6,2.87,2.66.33.4.64.8.91,1.21l.03.12c.98,4.56.69,9.1-.63,13.24Z"/><path class="cls-2" d="M99,116.24h1.45c-3.18,2.43-6.43,4.77-9.75,7-6.02,4.05-12.26,7.74-18.79,10.95-1.95.91-4.12,1.87-6.41,2.74-5.97,2.27-12.72,3.9-18.39,2.11-4.63-1.48-7.56-5.41-8.04-10.2-.3-2.65.12-5.42.72-7.84,1.96-6.65,11.48-4.2,10.08,2.51-.31,1.08-.59,2.22-.67,3.16-.09.88-.07,1.76.26,2.47.39.57,1.11.75,1.86.88,1.93.3,4.22.02,6.27-.42,3.4-.73,6.84-1.95,10.16-3.35,1.36-.57,2.69-1.17,4-1.79,6.75-3.24,13.98-7.49,21.32-12.43,2.62-1.77,5.26-3.62,7.89-5.56l-1.97,9.76Z"/><path class="cls-2" d="M133.38,86.48c-3.67,3.89-7.45,7.66-11.31,11.34h-9.96c4.42-3.63,8.75-7.43,12.9-11.34h8.37Z"/><path class="cls-2" d="M155.98,57.48c-6.12,10.04-13.49,19.21-21.48,27.8l2.25-10.64c7.02-7.64,13.09-15.4,17.6-22.82,2.6-4.48,6.77-12.31,5.11-17.38-1.25-3.41-5.45-3.66-8.64-3.36-9.31,1.12-20.61,6.44-31.49,13.06-.76-.11-1.53-.19-2.33-.24,1.22-.83,2.45-1.64,3.69-2.43,6.88-4.38,14.01-8.42,21.71-11.21,6.28-2.21,16.78-4.86,20.23,2.93,2.85,7.22-2.99,18.08-6.64,24.3Z"/></g></svg>