<?xml version="1.0" encoding="UTF-8"?><svg id="Layer_2" xmlns="http://www.w3.org/2000/svg" viewBox="0 0 200 200"><defs><style>.cls-1{fill:#2f393d;}.cls-1,.cls-2,.cls-3{stroke-width:0px;}.cls-2{fill:#17bba5;}.cls-3{fill:#d7ff36;}</style></defs><g id="Layer_1-2"><rect class="cls-3" width="200" height="200" rx="40.5" ry="40.5"/><path class="cls-1" d="M79.08,81.6c-.08-1.93-.33-3.78-.73-5.56l-5.93,28.1c1.82-2.45,2.86-4.77,3.53-6.23,2.25-4.99,3.37-10.78,3.13-16.31ZM81.12,69.73c-.37-.38-.74-.75-1.13-1.1-.18.63-.34,1.27-.48,1.92l-.57,2.69h0c.13.4.25.8.36,1.21.89.29,1.82.65,2.74,1.11-.38-1.93-.68-3.88-.92-5.82ZM82.68,71.49c.24,1.63.52,3.26.86,4.88,1.14.69,2.25,1.54,3.29,2.6-.98-2.76-2.39-5.27-4.16-7.47ZM85.63,89.44c-.28-1.77-.71-3.12-1.25-4.82-.52-1.66-1.12-3.55-1.78-6.4-.08-.34-.15-.67-.23-1.01-.9-.51-1.81-.92-2.7-1.25.39,1.79.63,3.65.71,5.58.25,5.73-.91,11.74-3.25,16.91-.87,1.92-2.37,5.23-5.31,8.48l-1.1,5.2c6.12-2.05,11.05-6.26,14.12-11.56h0c1.07-3.89,1.33-7.62.77-11.13ZM87.75,82.21l-.03-.12c-.28-.41-.58-.81-.91-1.21-.89-1.06-1.86-1.94-2.87-2.66.62,2.64,1.19,4.43,1.68,6.01.53,1.69.99,3.14,1.29,5.01.32,2.01.39,4.09.2,6.22,1.32-4.15,1.61-8.68.63-13.24ZM71.75,124.47c-1.31.62-2.64,1.22-4,1.79l-2.25,10.67c2.29-.87,4.46-1.84,6.41-2.74,6.53-3.2,12.78-6.9,18.79-10.95l2.37-11.2c-7.34,4.94-14.57,9.18-21.32,12.43ZM133.38,86.48h.87l.25-1.2c-.37.4-.75.8-1.12,1.2Z"/><path class="cls-1" d="M131.77,97.82l-15.23,72.1h-15.23l1.24-6.55,1.06-2.13h-2.13l-.89,2.13c-3.9,5.67-11.16,8.68-19.13,8.68-14.17,0-21.43-9.74-18.25-24.27l2.29-10.84c2.29-.87,4.46-1.84,6.41-2.74,6.53-3.2,12.78-6.9,18.79-10.95l-4.63,21.87c-.89,4.07,1.42,6.56,5.49,6.56s7.44-2.48,8.33-6.56l6.2-28.87h-7.08l1.97-9.76,1.75-8.67h29.05Z"/><path class="cls-2" d="M73.03,74.43c-11.22-1.56-22.07,3.11-28,7.64-4.23,3.23-6.87,6.93-7.24,10.15-.11.94-.12,1.91-.09,2.82,1.22,4.08,3.37,7.66,6.17,10.56,5-3.31,9.76-7,14.2-11.02,8.91-8.07,15.99-14.48,14.96-20.14Z"/><path class="cls-2" d="M44.24,81.03c3.74-2.85,8.49-5.2,13.39-6.62,5.06-1.46,10.22-1.93,14.99-1.36-2.02-4.7-9.35-7.07-13.8-7.46-5.69-.51-11.43,1.53-16.25,5.54-4.37,5.28-6.61,12.25-5.78,19.45.9-3.19,3.49-6.53,7.45-9.55Z"/><path class="cls-2" d="M58.93,64.29c5.16.46,13.33,3.23,15.15,8.98,1.05.16,2.34.38,3.74.74-.96-3.16-2.45-6.02-4.42-8.45-.63-.77-1.3-1.51-2.03-2.2h0c-4.43-1.63-9.36-2.06-14.32-1-3.33.71-6.37,2.04-9.03,3.83,3.49-1.55,7.21-2.23,10.91-1.9Z"/><path class="cls-2" d="M75.95,97.91c-.66,1.46-1.71,3.78-3.53,6.23-1.55,2.1-3.66,4.29-6.58,6.14-2.29,1.45-4.59,2.39-6.76,2.99,0,0,0,0,0,0-5.37-.71-10.36-3.1-14.25-6.74,4.97-3.31,9.71-6.99,14.12-10.99,9.35-8.46,16.23-14.69,15.43-20.9,1.11.18,2.43.43,3.84.84.04.19.09.37.13.56h0c.4,1.78.65,3.63.73,5.56.24,5.53-.88,11.32-3.13,16.31Z"/><path class="cls-2" d="M82.04,75.55c-.92-.45-1.84-.81-2.74-1.11-.11-.41-.23-.81-.36-1.21h0c-1.01-3.17-2.54-6.04-4.53-8.5l-.05-.06c2.04,1.06,3.94,2.39,5.63,3.95.39.35.76.72,1.13,1.1.23,1.95.54,3.89.92,5.82Z"/><path class="cls-2" d="M84.86,100.57h0c-3.07,5.31-8,9.51-14.12,11.56-.92.31-1.87.57-2.84.78-1.82.39-3.63.58-5.41.58,1.34-.55,2.7-1.24,4.06-2.1,2.15-1.36,3.88-2.9,5.28-4.45,2.94-3.25,4.44-6.57,5.31-8.48,2.34-5.17,3.49-11.17,3.25-16.91-.08-1.93-.32-3.79-.71-5.58.89.33,1.8.74,2.7,1.25.07.34.15.67.23,1.01.66,2.85,1.25,4.73,1.78,6.4.54,1.7.96,3.05,1.25,4.82.56,3.51.3,7.24-.77,11.13Z"/><path class="cls-2" d="M86.83,78.97c-1.04-1.05-2.16-1.91-3.29-2.6-.34-1.61-.63-3.24-.86-4.88,1.76,2.2,3.18,4.71,4.16,7.47Z"/><path class="cls-2" d="M87.12,95.45c.19-2.13.12-4.21-.2-6.22-.3-1.86-.76-3.32-1.29-5.01-.5-1.58-1.06-3.37-1.68-6.01,1.01.73,1.98,1.6,2.87,2.66.33.4.64.8.91,1.21l.03.12c.98,4.56.69,9.1-.63,13.24Z"/><path class="cls-1" d="M119.33,44.13c-.76-.11-1.53-.19-2.33-.24-.9-.06-1.82-.1-2.77-.1-16.65,0-30.05,9.95-34.24,24.83.39.35.76.72,1.13,1.1.23,1.95.54,3.89.92,5.82-.92-.45-1.84-.81-2.74-1.11-.11-.41-.23-.81-.36-1.21l-.59,2.81h0c.4,1.78.65,3.63.73,5.56.24,5.53-.88,11.32-3.13,16.31-.66,1.46-1.71,3.78-3.53,6.23l-.59,2.79c2.94-3.25,4.44-6.57,5.31-8.48,2.34-5.17,3.49-11.17,3.25-16.91-.08-1.93-.32-3.79-.71-5.58.89.33,1.8.74,2.7,1.25.07.34.15.67.23,1.01.66,2.85,1.25,4.73,1.78,6.4.54,1.7.96,3.05,1.25,4.82.56,3.51.3,7.24-.77,11.13h0c-3.07,5.31-8,9.51-14.12,11.56l-2.98,14.13c1.36-.57,2.69-1.17,4-1.79,6.75-3.24,13.98-7.49,21.32-12.43l8.76-41.33c.88-4.07,4.07-6.55,7.97-6.55s6.2,2.48,5.31,6.55l-3.19,15.77h21.45c.38-.4.75-.8,1.12-1.2l2.25-10.64.87-4.1c3.02-14.3-4.23-24.47-18.28-26.41ZM82.68,71.49c1.76,2.2,3.18,4.71,4.16,7.47-1.04-1.05-2.16-1.91-3.29-2.6-.34-1.61-.63-3.24-.86-4.88ZM87.12,95.45c.19-2.13.12-4.21-.2-6.22-.3-1.86-.76-3.32-1.29-5.01-.5-1.58-1.06-3.37-1.68-6.01,1.01.73,1.98,1.6,2.87,2.66.33.4.64.8.91,1.21l.03.12c.98,4.56.69,9.1-.63,13.24Z"/><path class="cls-2" d="M99,116.24h1.45c-3.18,2.43-6.43,4.77-9.75,7-6.02,4.05-12.26,7.74-18.79,10.95-1.95.91-4.12,1.87-6.41,2.74-5.97,2.27-12.72,3.9-18.39,2.11-4.63-1.48-7.56-5.41-8.04-10.2-.3-2.65.12-5.42.72-7.84,1.96-6.65,11.48-4.2,10.08,2.51-.31,1.08-.59,2.22-.67,3.16-.09.88-.07,1.76.26,2.47.39.57,1.11.75,1.86.88,1.93.3,4.22.02,6.27-.42,3.4-.73,6.84-1.95,10.16-3.35,1.36-.57,2.69-1.17,4-1.79,6.75-3.24,13.98-7.49,21.32-12.43,2.62-1.77,5.26-3.62,7.89-5.56l-1.97,9.76Z"/><path class="cls-2" d="M133.38,86.48c-3.67,3.89-7.45,7.66-11.31,11.34h-9.96c4.42-3.63,8.75-7.43,12.9-11.34h8.37Z"/><path class="cls-2" d="M155.98,57.48c-6.12,10.04-13.49,19.21-21.48,27.8l2.25-10.64c7.02-7.64,13.09-15.4,17.6-22.82,2.6-4.48,6.77-12.31,5.11-17.38-1.25-3.41-5.45-3.66-8.64-3.36-9.31,1.12-20.61,6.44-31.49,13.06-.76-.11-1.53-.19-2.33-.24,1.22-.83,2.45-1.64,3.69-2.43,6.88-4.38,14.01-8.42,21.71-11.21,6.28-2.21,16.78-4.86,20.23,2.93,2.85,7.22-2.99,18.08-6.64,24.3Z"/></g></svg>