<?xml version="1.0" encoding="UTF-8"?><svg id="Layer_2" xmlns="http://www.w3.org/2000/svg" viewBox="0 0 687.24 173.62"><defs><style>.cls-1{fill:#2f393d;}.cls-1,.cls-2{stroke-width:0px;}.cls-2{fill:#d7ff36;}</style></defs><g id="Layer_1-2"><path class="cls-2" d="M68.59,108.02l16.93-80.23C89.2,11.23,103.56,0,121.59,0s27.79,11.23,24.29,27.79l-3.5,16.56h-23.19l3.31-16.38c.92-4.23-1.29-6.81-5.52-6.81s-7.36,2.58-8.28,6.81l-16.38,77.29c-.92,4.23,1.47,6.81,5.7,6.81s7.73-2.58,8.65-6.81l6.44-30h-7.36l3.86-19.14h30.18l-15.83,74.9h-15.83l1.29-6.81,1.1-2.21h-2.21l-.92,2.21c-4.05,5.89-11.59,9.02-19.87,9.02-14.72,0-22.27-10.12-18.95-25.21Z"/><path class="cls-2" d="M169.81,2.21h35.7l-11.96,128.82h-24.48l4.23-31.1h-14.17l-9.02,31.1h-23.37L169.81,2.21ZM175.88,80.79l5.52-44.9,2.39-10.67h-3.31l-2.21,10.67-12.33,39.75-11.59,4.42-.18.74h21.72Z"/><path class="cls-2" d="M224.83,2.21h41.41l-11.59,85.39-4.23,20.43h3.13l4.42-20.43L282.8,2.21h40.67l-27.42,128.82h-23.19l19.69-92.56,2.21-10.49h-3.13l-2.39,10.49-27.6,92.56h-29.81l11.59-92.56,2.02-10.49h-3.13l-2.02,10.49-19.69,92.56h-23.19L224.83,2.21Z"/><path class="cls-2" d="M331.57,2.21h43.8l-4.42,21.16h-20.79l-5.7,27.05-11.23,4.23-.18.74h28.89l-4.42,20.61h-18.59l-6.07,28.89-11.23,4.23-.18.74h31.1l-4.6,21.16h-43.8L331.57,2.21Z"/><path class="cls-2" d="M388.8,23.37h-13.25l4.6-21.16h49.69l-4.42,21.16h-13.43l-22.82,107.66h-23.19l22.82-107.66Z"/><path class="cls-2" d="M433.16,2.21h23.19l-27.42,128.82h-23.19L433.16,2.21Z"/><path class="cls-2" d="M464.63,2.21h41.41l-11.59,85.39-4.23,20.43h3.13l4.42-20.43,24.84-85.39h40.67l-27.42,128.82h-23.19l19.69-92.56,2.21-10.49h-3.13l-2.39,10.49-27.6,92.56h-29.81l11.59-92.56,2.03-10.49h-3.13l-2.02,10.49-19.69,92.56h-23.19L464.63,2.21Z"/><path class="cls-2" d="M571.36,2.21h43.8l-4.42,21.16h-20.79l-5.7,27.05-11.23,4.23-.18.74h28.89l-4.42,20.61h-18.59l-6.07,28.89-11.23,4.23-.18.74h31.1l-4.6,21.16h-43.8L571.36,2.21Z"/><path class="cls-1" d="M17.3,154.94l-.81,4.13h-5.87l-2.78,14.19H3.12l2.78-14.19H0l.81-4.13h16.5Z"/><path class="cls-1" d="M19.08,159.21c.91-1.45,2.13-2.58,3.68-3.4,1.54-.82,3.29-1.23,5.25-1.23,1.82,0,3.39.36,4.7,1.09,1.32.73,2.32,1.73,3.01,3,.69,1.27,1.04,2.72,1.04,4.35,0,.23-.02.58-.05,1.06-.16,1.82-.69,3.45-1.6,4.9-.91,1.45-2.13,2.58-3.65,3.4-1.52.82-3.26,1.23-5.2,1.23-1.82,0-3.39-.36-4.73-1.09s-2.35-1.74-3.05-3.03c-.7-1.29-1.05-2.76-1.05-4.4,0-.23.02-.56.05-1.01.16-1.8.69-3.42,1.6-4.87ZM22.32,165.09c0,1.37.35,2.42,1.04,3.14.69.73,1.74,1.09,3.14,1.09,1.56,0,2.79-.45,3.7-1.36.91-.91,1.46-2.2,1.65-3.88.05-.4.08-.76.08-1.09,0-1.33-.35-2.36-1.05-3.07-.7-.71-1.74-1.07-3.1-1.07-1.56,0-2.8.45-3.73,1.36-.93.91-1.48,2.2-1.68,3.86-.03.24-.05.58-.05,1.01Z"/><path class="cls-1" d="M41.34,154.94h4.7l-2.78,14.16h2.49c1.3,0,2.33-.09,3.08-.26.75-.17,1.41-.62,1.97-1.34.56-.72.97-1.84,1.21-3.36.1-.66.16-1.23.16-1.71,0-1.04-.2-1.8-.6-2.27-.4-.48-.92-.77-1.57-.9-.65-.12-1.55-.18-2.69-.18h-2.08l.81-4.13h1.64c2.77,0,5,.51,6.68,1.52,1.68,1.01,2.52,2.93,2.52,5.76,0,.52-.04,1.15-.13,1.9-.31,2.46-1.03,4.37-2.14,5.72-1.12,1.35-2.45,2.26-3.99,2.73-1.54.47-3.28.7-5.22.7h-7.64l3.59-18.32Z"/><path class="cls-1" d="M65.81,154.94h8.65l2.26,18.32h-4.91l-.65-5.53h-6.94l-2.81,5.53h-5.07l9.46-18.32ZM70.69,163.59l-.83-6.94-3.53,6.94h4.36Z"/><path class="cls-1" d="M99.77,154.94l-7.35,11.25h-1.71l-1.38,7.07h-4.73l1.38-7.07h-1.69l-2.91-11.25h4.86l2.18,10.03,6.13-10.03h5.22Z"/><path class="cls-1" d="M102.52,153.74l3.56-.83.94,9.46-3.61.78-.88-9.41Z"/><path class="cls-1" d="M124.45,171.95c-1.42,1.11-3.62,1.66-6.6,1.66s-5.14-.57-6.53-1.7-2.09-2.78-2.09-4.95c0-.38,0-.67.03-.86h4.86c-.02.14-.03.33-.03.57,0,.75.13,1.33.39,1.75s.69.74,1.29.93c.6.2,1.42.3,2.48.3,1.2,0,2.07-.13,2.62-.4.55-.27.83-.7.83-1.29,0-.31-.12-.57-.36-.78-.24-.21-.61-.39-1.09-.55l-5.01-1.59c-1.4-.43-2.41-1.06-3.03-1.87-.62-.81-.88-1.87-.79-3.17.14-1.8.88-3.16,2.23-4.08s3.22-1.38,5.61-1.38c2.79,0,4.87.6,6.24,1.79,1.37,1.2,1.98,2.82,1.84,4.88h-4.88c.07-.99-.17-1.7-.7-2.14-.54-.44-1.43-.66-2.68-.66-1.85,0-2.78.52-2.78,1.56,0,.24.09.46.29.66.19.2.55.38,1.07.53l4.83,1.46c1.4.43,2.44,1.03,3.1,1.78.67.75,1,1.72,1,2.9,0,1.97-.71,3.52-2.13,4.63Z"/><path class="cls-1" d="M139.7,154.94h8.78l1.97,16.81.49-2.55,2.78-14.26h4.73l-3.59,18.32h-8.81l-1.97-16.81-.49,2.55-2.78,14.26h-4.7l3.59-18.32Z"/><path class="cls-1" d="M162.12,154.94h7.35c1.75,0,3.15.12,4.21.35,1.06.23,1.84.64,2.36,1.21.52.57.78,1.35.78,2.34,0,1.63-.4,2.79-1.2,3.49-.8.7-1.78,1.15-2.96,1.34,1.14.19,2.06.6,2.74,1.22.68.62,1.03,1.52,1.03,2.7,0,.16-.02.43-.05.81-.17,1.35-.67,2.38-1.49,3.09s-1.87,1.18-3.14,1.42c-1.27.23-2.84.35-4.69.35h-8.52l3.59-18.32ZM167.76,169.23c1.07,0,1.84-.02,2.29-.06.45-.04.83-.2,1.13-.46s.51-.69.61-1.3c.02-.1.03-.26.03-.47,0-.47-.13-.8-.4-.99-.27-.19-.61-.3-1.03-.34-.42-.03-1.11-.05-2.08-.05h-3.53l-.73,3.66h3.72ZM169.24,161.87h.97c.56,0,.99-.13,1.29-.39.29-.26.48-.65.55-1.17.02-.09.03-.2.03-.34,0-.4-.1-.68-.29-.86-.19-.17-.44-.28-.75-.32-.31-.04-.77-.06-1.38-.06h-3.56l-.62,3.14h3.77Z"/><path class="cls-1" d="M186.18,154.94h8.65l2.26,18.32h-4.91l-.65-5.53h-6.94l-2.81,5.53h-5.07l9.46-18.32ZM191.06,163.59l-.83-6.94-3.53,6.94h4.36Z"/><path class="cls-1" d="M211.59,172.59c-1.18-.67-2.08-1.62-2.72-2.86-.63-1.24-.95-2.69-.95-4.35,0-.26.02-.65.05-1.17.17-1.97.72-3.69,1.65-5.14.93-1.46,2.14-2.57,3.64-3.34,1.5-.77,3.17-1.16,5.03-1.16,1.59,0,3.03.29,4.31.87,1.28.58,2.31,1.39,3.08,2.44.77,1.05,1.2,2.25,1.29,3.6h-4.88c-.05-.85-.41-1.53-1.07-2.05s-1.52-.78-2.6-.78c-1.54,0-2.8.49-3.78,1.48-.98.99-1.57,2.3-1.78,3.95-.05.42-.08.81-.08,1.2,0,2.79,1.5,4.18,4.49,4.18,1.33,0,2.44-.27,3.33-.8.88-.54,1.43-1.26,1.64-2.16h-4.55l.68-3.61h6.76c.66,0,1.16.15,1.51.45.35.3.52.75.52,1.34,0,.21-.03.43-.08.68l-1.56,7.9h-4.68l.29-1.25.26-1.43c-.52.97-1.26,1.71-2.22,2.23-.96.52-2.12.78-3.47.78-1.56,0-2.93-.33-4.1-1Z"/><path class="cls-1" d="M237.41,154.94h8.65l2.26,18.32h-4.91l-.65-5.53h-6.94l-2.81,5.53h-5.07l9.46-18.32ZM242.3,163.59l-.83-6.94-3.53,6.94h4.36Z"/><path class="cls-1" d="M254.17,154.94h8.86l-.57,16.73,5.92-16.73h8.94l-3.59,18.32h-4.7l2.23-11.33,1.01-5.25-6.21,16.58h-7.82l.26-16.55-1.01,5.22-2.21,11.33h-4.7l3.59-18.32Z"/><path class="cls-1" d="M281.01,154.94h14.55l-.81,4.13h-9.82l-.62,3.07h8.52l-.73,3.9h-8.52l-.62,3.09h9.82l-.81,4.13h-14.55l3.59-18.32Z"/><path class="cls-1" d="M318.71,171.95c-1.42,1.11-3.62,1.66-6.6,1.66s-5.14-.57-6.53-1.7-2.09-2.78-2.09-4.95c0-.38,0-.67.03-.86h4.86c-.02.14-.03.33-.03.57,0,.75.13,1.33.39,1.75s.69.74,1.29.93c.6.2,1.42.3,2.48.3,1.2,0,2.07-.13,2.62-.4.55-.27.83-.7.83-1.29,0-.31-.12-.57-.36-.78-.24-.21-.61-.39-1.09-.55l-5.01-1.59c-1.4-.43-2.41-1.06-3.03-1.87-.62-.81-.88-1.87-.79-3.17.14-1.8.88-3.16,2.23-4.08s3.22-1.38,5.61-1.38c2.79,0,4.87.6,6.24,1.79,1.37,1.2,1.98,2.82,1.84,4.88h-4.88c.07-.99-.17-1.7-.7-2.14-.54-.44-1.43-.66-2.68-.66-1.85,0-2.78.52-2.78,1.56,0,.24.09.46.29.66.19.2.55.38,1.07.53l4.83,1.46c1.4.43,2.44,1.03,3.1,1.78.67.75,1,1.72,1,2.9,0,1.97-.71,3.52-2.13,4.63Z"/><path class="cls-1" d="M327.71,172.52c-1.36-.73-2.39-1.74-3.1-3.03-.71-1.29-1.07-2.76-1.07-4.4,0-.23.02-.56.05-1.01.16-1.8.69-3.42,1.61-4.87.92-1.45,2.16-2.58,3.72-3.4,1.56-.82,3.33-1.23,5.3-1.23,1.7,0,3.19.3,4.47.91s2.28,1.47,3,2.58,1.09,2.43,1.13,3.94h-4.86c-.09-1.02-.5-1.8-1.23-2.34-.74-.54-1.68-.81-2.82-.81-1.46,0-2.67.43-3.65,1.29-.98.86-1.57,2.14-1.78,3.86-.03.45-.05.78-.05.99,0,1.46.39,2.54,1.16,3.26s1.82,1.08,3.16,1.08c1.18,0,2.19-.28,3.04-.83.85-.55,1.43-1.33,1.74-2.34h4.88c-.31,1.54-.92,2.87-1.83,3.99-.91,1.12-2.05,1.97-3.43,2.57-1.38.6-2.91.9-4.59.9-1.87,0-3.49-.36-4.85-1.09Z"/><path class="cls-1" d="M352.12,154.94l-1.43,7.35h8.03l1.43-7.35h4.76l-3.59,18.32h-4.76l1.33-6.81h-8.03l-1.32,6.81h-4.7l3.59-18.32h4.7Z"/><path class="cls-1" d="M368.57,154.94h14.55l-.81,4.13h-9.82l-.62,3.07h8.52l-.73,3.9h-8.52l-.62,3.09h9.82l-.81,4.13h-14.55l3.59-18.32Z"/><path class="cls-1" d="M386.29,154.94h4.7l-2.78,14.16h2.49c1.3,0,2.33-.09,3.08-.26.75-.17,1.41-.62,1.97-1.34.56-.72.97-1.84,1.21-3.36.1-.66.16-1.23.16-1.71,0-1.04-.2-1.8-.6-2.27-.4-.48-.92-.77-1.57-.9-.65-.12-1.55-.18-2.69-.18h-2.08l.81-4.13h1.64c2.77,0,5,.51,6.68,1.52,1.68,1.01,2.52,2.93,2.52,5.76,0,.52-.04,1.15-.13,1.9-.31,2.46-1.03,4.37-2.14,5.72-1.12,1.35-2.45,2.26-3.99,2.73-1.54.47-3.28.7-5.22.7h-7.64l3.59-18.32Z"/><path class="cls-1" d="M405.85,154.94h4.73l-1.77,9.09c-.24,1.18-.36,2.1-.36,2.75,0,.87.24,1.52.73,1.96.48.44,1.34.66,2.57.66,1.16,0,2.04-.19,2.64-.57.6-.38,1.02-.9,1.26-1.55.24-.65.49-1.63.75-2.95l1.82-9.4h4.73l-2.36,12.08c-.42,2.15-1.36,3.78-2.85,4.9s-3.49,1.68-6.01,1.68c-2.37,0-4.32-.5-5.85-1.51-1.52-1.01-2.29-2.59-2.29-4.76,0-.55.07-1.2.21-1.95l2.05-10.44Z"/><path class="cls-1" d="M423.49,172.82c-.35-.29-.52-.71-.52-1.29,0-.21.03-.42.08-.65l3.12-15.95h4.7l-2.75,14.16h8.81l-.8,4.16h-11.12c-.66,0-1.16-.14-1.51-.43Z"/><path class="cls-1" d="M442.22,154.94h14.55l-.81,4.13h-9.82l-.62,3.07h8.52l-.73,3.9h-8.52l-.62,3.09h9.82l-.81,4.13h-14.55l3.59-18.32Z"/><path class="cls-1" d="M471.89,162.42l1.06-5.48h3.35l-1.06,5.48h5.46l-.65,3.35h-5.46l-1.07,5.46h-3.35l1.07-5.46h-5.46l.65-3.35h5.46Z"/><path class="cls-1" d="M491.15,172.82c-.35-.29-.52-.71-.52-1.29,0-.21.03-.42.08-.65l3.12-15.95h4.7l-2.75,14.16h8.81l-.8,4.16h-11.12c-.66,0-1.16-.14-1.51-.43Z"/><path class="cls-1" d="M522.56,154.94l-.83,4.13h-4.16l-1.97,10.03h4.21l-.83,4.16h-13.07l.83-4.16h4.16l1.97-10.03h-4.18l.81-4.13h13.07Z"/><path class="cls-1" d="M524.45,154.94h4.91l1.95,16.6,8.44-16.6h5.07l-9.46,18.32h-8.65l-2.26-18.32Z"/><path class="cls-1" d="M547.11,154.94h14.55l-.81,4.13h-9.82l-.62,3.07h8.52l-.73,3.9h-8.52l-.62,3.09h9.82l-.81,4.13h-14.55l3.59-18.32Z"/><path class="cls-1" d="M584.81,171.95c-1.42,1.11-3.62,1.66-6.6,1.66s-5.14-.57-6.53-1.7c-1.39-1.13-2.09-2.78-2.09-4.95,0-.38,0-.67.03-.86h4.86c-.02.14-.03.33-.03.57,0,.75.13,1.33.39,1.75s.69.74,1.29.93c.6.2,1.43.3,2.48.3,1.2,0,2.07-.13,2.63-.4.55-.27.83-.7.83-1.29,0-.31-.12-.57-.36-.78-.24-.21-.61-.39-1.09-.55l-5.02-1.59c-1.4-.43-2.41-1.06-3.03-1.87-.61-.81-.88-1.87-.79-3.17.14-1.8.88-3.16,2.23-4.08,1.35-.92,3.22-1.38,5.61-1.38,2.79,0,4.87.6,6.24,1.79,1.37,1.2,1.98,2.82,1.84,4.88h-4.89c.07-.99-.16-1.7-.7-2.14-.54-.44-1.43-.66-2.68-.66-1.85,0-2.78.52-2.78,1.56,0,.24.1.46.29.66s.55.38,1.07.53l4.83,1.46c1.4.43,2.44,1.03,3.1,1.78.67.75,1,1.72,1,2.9,0,1.97-.71,3.52-2.13,4.63Z"/><path class="cls-1" d="M593.81,172.52c-1.36-.73-2.39-1.74-3.1-3.03-.71-1.29-1.07-2.76-1.07-4.4,0-.23.02-.56.05-1.01.16-1.8.69-3.42,1.61-4.87.92-1.45,2.16-2.58,3.72-3.4,1.56-.82,3.33-1.23,5.3-1.23,1.7,0,3.19.3,4.47.91s2.28,1.47,3,2.58c.72,1.12,1.09,2.43,1.13,3.94h-4.86c-.09-1.02-.5-1.8-1.23-2.34-.74-.54-1.68-.81-2.82-.81-1.45,0-2.67.43-3.65,1.29-.98.86-1.57,2.14-1.78,3.86-.03.45-.05.78-.05.99,0,1.46.39,2.54,1.16,3.26.77.72,1.82,1.08,3.16,1.08,1.18,0,2.19-.28,3.04-.83.85-.55,1.43-1.33,1.74-2.34h4.88c-.31,1.54-.92,2.87-1.83,3.99-.91,1.12-2.05,1.97-3.43,2.57s-2.91.9-4.59.9c-1.87,0-3.49-.36-4.85-1.09Z"/><path class="cls-1" d="M612.46,159.21c.91-1.45,2.13-2.58,3.68-3.4s3.29-1.23,5.25-1.23c1.82,0,3.39.36,4.7,1.09,1.32.73,2.32,1.73,3.01,3s1.04,2.72,1.04,4.35c0,.23-.02.58-.05,1.06-.16,1.82-.69,3.45-1.6,4.9s-2.13,2.58-3.65,3.4c-1.52.82-3.26,1.23-5.2,1.23-1.82,0-3.4-.36-4.73-1.09-1.33-.73-2.35-1.74-3.05-3.03-.7-1.29-1.05-2.76-1.05-4.4,0-.23.02-.56.05-1.01.16-1.8.69-3.42,1.6-4.87ZM615.7,165.09c0,1.37.35,2.42,1.04,3.14.69.73,1.74,1.09,3.14,1.09,1.56,0,2.79-.45,3.7-1.36.91-.91,1.46-2.2,1.65-3.88.05-.4.08-.76.08-1.09,0-1.33-.35-2.36-1.05-3.07-.7-.71-1.74-1.07-3.11-1.07-1.56,0-2.8.45-3.73,1.36-.93.91-1.49,2.2-1.68,3.86-.03.24-.05.58-.05,1.01Z"/><path class="cls-1" d="M634.72,154.94h7.48c2.36,0,4.26.32,5.7.95s2.17,1.79,2.17,3.47c0,1.47-.41,2.62-1.22,3.44-.81.82-1.82,1.36-3.01,1.62h.1c.99,0,1.71.23,2.16.68s.68,1.04.68,1.77c0,.26-.03.54-.08.83l-1.09,5.56h-4.7l1.22-6.21h-7.04l-1.22,6.21h-4.73l3.59-18.32ZM641.32,162.94c.83,0,1.48-.03,1.96-.1s.87-.24,1.2-.52c.32-.28.52-.71.61-1.3.02-.1.03-.24.03-.42,0-.48-.14-.84-.42-1.05-.28-.22-.63-.35-1.05-.4-.42-.05-1.02-.08-1.78-.08h-3.22l-.75,3.87h3.43Z"/><path class="cls-1" d="M654.36,154.94h14.55l-.81,4.13h-9.82l-.62,3.07h8.52l-.73,3.9h-8.52l-.62,3.09h9.82l-.81,4.13h-14.55l3.59-18.32Z"/><path class="cls-1" d="M684.34,171.95c-1.42,1.11-3.62,1.66-6.6,1.66s-5.14-.57-6.53-1.7c-1.39-1.13-2.09-2.78-2.09-4.95,0-.38,0-.67.03-.86h4.86c-.02.14-.03.33-.03.57,0,.75.13,1.33.39,1.75s.69.74,1.29.93c.6.2,1.43.3,2.48.3,1.2,0,2.07-.13,2.63-.4.55-.27.83-.7.83-1.29,0-.31-.12-.57-.36-.78-.24-.21-.61-.39-1.09-.55l-5.02-1.59c-1.4-.43-2.41-1.06-3.03-1.87-.61-.81-.88-1.87-.79-3.17.14-1.8.88-3.16,2.23-4.08,1.35-.92,3.22-1.38,5.61-1.38,2.79,0,4.87.6,6.24,1.79,1.37,1.2,1.98,2.82,1.84,4.88h-4.89c.07-.99-.16-1.7-.7-2.14-.54-.44-1.43-.66-2.68-.66-1.85,0-2.78.52-2.78,1.56,0,.24.1.46.29.66s.55.38,1.07.53l4.83,1.46c1.4.43,2.44,1.03,3.1,1.78.67.75,1,1.72,1,2.9,0,1.97-.71,3.52-2.13,4.63Z"/></g></svg>