<?xml version="1.0" encoding="UTF-8"?><svg id="Layer_2" xmlns="http://www.w3.org/2000/svg" viewBox="0 0 38.16 9.89"><defs><style>.cls-1{fill:#1610ff;stroke-width:0px;}</style></defs><g id="tag"><path class="cls-1" d="M3.12,4.01c-.15,0-.3-.1-.47-.31-.15-.18-.32-.48-.55-.93-.21.38-.36.64-.43.77-.09.15-.17.26-.26.34-.09.09-.2.13-.32.13-.14,0-.26-.05-.35-.15-.09-.1-.14-.2-.14-.32,0-.1.02-.18.06-.24.27-.37.55-.69.84-.97-.22-.04-.42-.08-.59-.12-.22-.05-.45-.13-.69-.23-.06-.03-.1-.08-.15-.17-.04-.08-.06-.16-.06-.23,0-.13.05-.25.15-.34.1-.09.21-.13.33-.13.09,0,.19.02.32.08.12.05.27.12.45.21l.49.24c-.03-.17-.06-.36-.08-.57-.03-.27-.04-.45-.04-.55,0-.14.04-.26.13-.36.09-.1.21-.15.35-.15s.25.05.34.15c.09.1.13.23.13.39,0,.04,0,.12-.02.24-.01.12-.1.86-.1.86.17-.08.33-.16.48-.24.19-.1.35-.17.46-.22.12-.05.22-.07.3-.07.13,0,.25.04.34.13.1.09.15.2.15.34,0,.08-.02.16-.07.24-.05.08-.1.14-.16.16-.38.15-.81.27-1.26.34.07.07.15.15.23.24.14.15.21.23.22.24.05.06.11.15.2.25.09.11.16.19.19.25.04.07.06.15.06.24,0,.12-.05.23-.14.32s-.21.14-.35.14Z"/><path class="cls-1" d="M3.12,3.93c-.12,0-.26-.1-.42-.29s-.35-.54-.6-1.04c-.25.45-.41.75-.5.89s-.17.25-.24.32-.17.11-.27.11c-.12,0-.22-.04-.3-.12s-.12-.17-.12-.27c0-.09.02-.15.05-.2.3-.41.61-.76.94-1.06-.27-.04-.52-.09-.73-.14s-.44-.13-.68-.23c-.04-.02-.08-.06-.11-.13s-.06-.13-.06-.19c0-.11.04-.21.12-.29s.18-.11.29-.11c.08,0,.18.02.29.07s.27.12.45.21.39.19.62.3c-.04-.21-.08-.44-.1-.71s-.04-.45-.04-.54c0-.12.04-.22.11-.31s.17-.13.3-.13.21.04.29.13.11.2.11.34c0,.04,0,.12-.02.23s-.03.26-.05.42-.04.35-.07.56c.21-.1.41-.2.61-.29s.35-.17.46-.21.21-.07.27-.07c.11,0,.21.04.3.11s.12.17.12.29c0,.06-.02.13-.06.2s-.08.11-.13.13c-.42.17-.88.29-1.39.36.09.08.2.2.34.34s.2.21.21.22c.05.07.12.15.21.25s.15.18.18.24.05.13.05.21"/><path class="cls-1" d="M7.03,7.92c-.21,0-.41-.03-.6-.08-.19-.05-.35-.12-.48-.2-.13-.08-.24-.17-.34-.26-.06-.06-.14-.14-.23-.24,0,.24-.08.43-.2.56-.13.14-.31.22-.51.22s-.38-.07-.51-.22c-.12-.14-.19-.35-.19-.62V1.26c0-.29.06-.51.18-.66.12-.16.3-.23.51-.23s.4.07.53.22c.12.14.18.35.18.61v1.86c.22-.21.44-.37.66-.49.27-.14.61-.22,1-.22.45,0,.86.11,1.2.33.34.22.61.53.8.94.19.41.28.89.28,1.45,0,.41-.05.79-.16,1.13-.1.34-.26.65-.46.9-.2.25-.45.45-.74.59-.29.14-.61.21-.95.21ZM6.69,3.49c-.24,0-.45.07-.64.19-.19.13-.34.32-.44.57-.11.25-.17.56-.17.91,0,.51.12.91.35,1.18.23.27.52.4.9.4.32,0,.58-.13.81-.41.23-.28.35-.68.35-1.21,0-.34-.05-.64-.15-.88-.1-.24-.23-.43-.41-.56-.17-.13-.38-.19-.61-.19Z"/><path class="cls-1" d="M4.05,1.26c0-.27.05-.47.16-.61s.26-.21.46-.21c.21,0,.36.07.47.2s.17.32.17.56v2.04c.25-.26.51-.46.77-.6s.58-.21.97-.21c.44,0,.83.1,1.16.31s.59.51.78.91.28.87.28,1.42c0,.4-.05.77-.15,1.11s-.25.63-.45.88-.43.44-.71.57-.58.2-.92.2c-.21,0-.4-.02-.58-.07s-.33-.11-.46-.19-.24-.16-.32-.25-.21-.21-.35-.38v.13c0,.25-.06.44-.18.57s-.27.19-.46.19-.34-.06-.45-.19-.17-.32-.17-.57M5.37,5.16c0,.53.12.94.36,1.22s.56.43.95.43c.34,0,.62-.15.87-.44s.36-.71.36-1.25c0-.35-.05-.65-.15-.91s-.24-.45-.43-.59-.4-.21-.65-.21-.48.07-.68.21-.35.34-.47.6-.17.57-.17.94Z"/><path class="cls-1" d="M9.88,9.89c-.4,0-.7-.04-.91-.13-.22-.1-.34-.27-.34-.53,0-.17.05-.31.16-.41.11-.09.26-.14.46-.14.08,0,.16.01.23.03.08.02.14.03.2.03.14,0,.25-.02.33-.06.08-.04.15-.11.21-.21.07-.11.15-.27.24-.49l.12-.3-1.64-4.08c-.1-.25-.16-.43-.16-.54,0-.13.03-.25.1-.35.06-.11.15-.2.27-.26s.23-.1.36-.1c.21,0,.38.07.49.21.1.13.19.31.27.55l1.06,3.08,1-2.86c.09-.25.16-.45.23-.59.08-.15.15-.26.24-.31.09-.06.21-.08.36-.08.11,0,.22.03.33.09.1.06.19.14.24.25s.08.21.08.32c-.01.08-.04.17-.07.28-.03.12-.07.23-.11.35l-1.74,4.55c-.15.4-.3.72-.45.95-.15.24-.35.42-.6.55-.25.13-.58.19-.99.19Z"/><path class="cls-1" d="M19.38,7.92c-.2,0-.37-.07-.5-.22-.12-.13-.19-.32-.2-.56-.14.15-.28.27-.42.37-.18.13-.38.23-.59.3-.21.07-.44.1-.69.1-.33,0-.64-.07-.92-.21-.28-.14-.52-.34-.73-.6-.2-.26-.36-.56-.46-.91-.1-.34-.16-.72-.16-1.12,0-.85.21-1.52.63-2,.42-.48.98-.72,1.66-.72.39,0,.73.07,1,.21.23.11.45.28.67.49v-1.79c0-.29.06-.51.18-.66.12-.16.3-.24.52-.24s.4.07.52.22c.12.14.18.35.18.62v5.88c0,.27-.07.48-.19.62-.13.14-.3.21-.51.21ZM17.39,3.49c-.23,0-.43.07-.61.19-.18.13-.32.32-.42.56-.1.25-.15.54-.15.87,0,.35.05.65.16.89.11.24.25.42.44.54s.38.18.6.18.42-.06.6-.17c.18-.11.33-.29.44-.53.11-.24.17-.55.17-.92,0-.34-.06-.64-.17-.89-.11-.24-.26-.43-.44-.56-.18-.13-.39-.19-.61-.19Z"/><path class="cls-1" d="M24.65,7.92c-.15,0-.31-.07-.46-.21-.12-.12-.26-.29-.39-.51-.3.23-.6.41-.89.52-.31.13-.66.19-1.04.19-.35,0-.67-.07-.93-.21-.27-.14-.48-.33-.63-.58-.15-.24-.22-.51-.22-.79,0-.38.12-.71.36-.98.24-.27.57-.45.99-.54.08-.02.29-.06.63-.13.33-.07.62-.13.86-.19.24-.06.5-.13.77-.21-.02-.38-.04-.53-.24-.69-.14-.11-.36-.19-.73-.19-.33,0-.57.04-.73.13-.16.09-.3.22-.41.4-.13.19-.21.32-.27.38-.06.08-.19.12-.38.12-.17,0-.31-.05-.44-.16-.12-.11-.19-.25-.19-.42,0-.25.09-.49.26-.73.17-.23.44-.42.81-.57.36-.15.81-.22,1.34-.22.59,0,1.07.07,1.41.21.35.15.6.38.75.69.14.31.21.72.21,1.22v1.52c0,.24.03.5.11.76.09.28.13.46.13.55,0,.16-.07.3-.22.43-.14.12-.3.19-.48.19ZM23.66,5.27c-.19.06-.45.13-.77.2-.37.08-.63.14-.77.18-.13.03-.26.1-.38.21-.11.1-.17.23-.17.4s.07.33.21.46c.14.13.32.19.55.19.25,0,.49-.06.7-.17.21-.11.36-.25.46-.42.11-.19.17-.51.17-.96v-.09Z"/><path class="cls-1" d="M29.54,7.92c-.22,0-.4-.08-.54-.23-.14-.15-.2-.37-.2-.65v-2.22c0-.43-.06-.75-.18-.97-.11-.21-.33-.31-.67-.31-.22,0-.43.07-.61.2-.18.13-.32.32-.4.55-.06.19-.09.55-.09,1.09v1.67c0,.29-.07.51-.21.66-.14.15-.32.23-.54.23s-.39-.08-.53-.23c-.14-.15-.2-.37-.2-.65v-3.85c0-.27.06-.48.18-.62.12-.14.29-.21.51-.21.13,0,.25.03.35.09.11.06.19.15.26.28.06.11.09.24.09.4.21-.24.43-.42.66-.54.29-.15.62-.23.99-.23s.69.08.98.24c.29.16.51.39.65.68.09.17.15.35.18.55.03.19.04.44.04.73v2.48c0,.28-.07.5-.2.65-.13.15-.31.23-.53.23Z"/><path class="cls-1" d="M32.32,7.92c-.43,0-.76-.07-.99-.22-.23-.15-.38-.36-.45-.62-.07-.25-.1-.59-.1-1.01v-2.49h-.1c-.21,0-.37-.05-.49-.16-.12-.11-.17-.24-.17-.4s.06-.3.18-.4c.12-.1.29-.15.51-.15h.07v-.73c0-.22,0-.39.02-.51.01-.13.05-.25.1-.34.06-.1.14-.18.25-.25.11-.06.23-.1.36-.1.19,0,.36.07.51.21.1.09.17.21.2.35.02.13.04.3.04.53v.84h.42c.21,0,.37.05.48.15.11.1.17.24.17.4,0,.21-.08.36-.25.44-.15.08-.36.11-.64.11h-.18v2.38c0,.2,0,.36.02.47.01.1.04.18.1.23.05.05.14.08.26.08.07,0,.18-.01.3-.04.14-.03.25-.04.33-.04.13,0,.24.05.34.15.1.1.15.23.15.37,0,.24-.13.43-.39.56-.24.12-.59.18-1.04.18Z"/><path class="cls-1" d="M35.73,7.92c-.87,0-1.56-.25-2.05-.75-.49-.5-.73-1.19-.73-2.04,0-.4.06-.78.18-1.12.12-.35.3-.65.53-.89.23-.25.52-.44.86-.57s.71-.2,1.12-.2c.53,0,.99.11,1.38.34.38.23.67.52.86.88.19.36.29.73.29,1.1s-.11.6-.33.72c-.2.1-.49.16-.84.16h-2.53c.01.26.07.49.17.7.11.22.26.38.45.49.18.11.39.17.61.17.15,0,.29-.02.42-.05.13-.04.25-.09.36-.17.12-.08.23-.16.33-.25.1-.09.24-.21.4-.37.08-.07.2-.11.34-.11.15,0,.28.04.38.13.1.09.15.21.15.37,0,.13-.05.29-.15.46-.1.17-.25.33-.44.48-.2.15-.45.28-.74.38-.29.1-.63.15-1.02.15ZM36.72,4.63c-.04-.4-.15-.7-.34-.9-.2-.21-.46-.32-.79-.32s-.56.11-.77.32c-.19.2-.31.5-.36.9h2.26Z"/></g></svg>